# File created by Blade
# Date/Time:  Wed Jan 21 15:55:51 2015
# Frame Rate: 120.000 fps
#------------------------------------------------------
:FULLY-SPECIFIED
:DEGREES
914
root 23.454183 15.476042 -12.421660 -171.983551 19.828466 -203.567001
Spine 50.255449 -26.622540 12.206184
Head 8.191232 16.929271 -3.433671
LeftShoulder 25.250737 -41.791642 -8.673428
LeftArm 12.133958 6.288190 -85.217544
LeftForeArm -59.937390 -0.000000 -1.703528
LeftHand -8.449722 0.000000 -6.958767
LeftHandThumb1 -26.253704 0.000000 33.147579
RightShoulder 7.930683 4.142668 7.527975
RightArm 39.383555 22.542449 61.280937
RightForeArm 3.928193 -0.000000 28.838962
RightHand -16.808952 -0.000000 -70.258161
RightHandThumb1 -24.326973 -0.000000 -32.862282
LeftUpLeg 4.533483 37.794070 37.099798
LeftLeg -2.506724 -0.000000 0.000000
LeftFoot -3.804620 16.997668 -27.408121
LeftToeBase 42.391316 -0.000000 -0.000000
RightUpLeg -114.909518 -15.482108 -4.038542
RightLeg 130.669470 -0.000000 -0.000000
RightFoot -62.280857 -34.323789 30.450239
RightToeBase 20.601076 -0.000000 -0.000000
915
root 23.449302 15.507481 -12.430763 -171.847766 19.918792 -203.521910
Spine 50.550348 -26.643424 12.058219
Head 8.280810 16.937178 -4.066784
LeftShoulder 25.859365 -42.222085 -8.871061
LeftArm 12.436196 6.871391 -86.242001
LeftForeArm -60.977783 -0.000000 -1.663959
LeftHand -8.533311 -0.000000 -8.656221
LeftHandThumb1 -26.253704 0.000000 33.147579
RightShoulder 8.027627 4.224696 7.409358
RightArm 39.604726 22.444240 61.305902
RightForeArm 3.910346 -0.000000 28.552365
RightHand -16.954292 -0.000000 -70.175279
RightHandThumb1 -24.326973 -0.000000 -32.862282
LeftUpLeg 4.496020 37.916439 37.041990
LeftLeg -2.521085 -0.000000 0.000000
LeftFoot -3.892610 17.005537 -27.452393
LeftToeBase 42.443566 -0.000000 -0.000000
RightUpLeg -114.908919 -15.435666 -4.010360
RightLeg 130.551533 -0.000000 -0.000000
RightFoot -62.293601 -34.317365 30.468416
RightToeBase 20.565722 -0.000000 -0.000000
916
root 23.443235 15.550587 -12.441445 -171.692708 20.030558 -203.433617
Spine 50.882411 -26.685743 11.979631
Head 8.225822 17.006145 -4.798512
LeftShoulder 26.120921 -42.301280 -8.820328
LeftArm 13.276247 7.587006 -87.150751
LeftForeArm -62.201014 -0.000000 -1.796821
LeftHand -8.534682 -0.000000 -9.203547
LeftHandThumb1 -26.253704 0.000000 33.147579
RightShoulder 8.111972 4.251030 7.179690
RightArm 39.930255 22.325457 61.358554
RightForeArm 3.940651 -0.000000 28.250697
RightHand -17.172019 -0.000000 -70.060541
RightHandThumb1 -24.326973 -0.000000 -32.862282
LeftUpLeg 4.473231 38.054009 37.008257
LeftLeg -2.543234 -0.000000 0.000000
LeftFoot -3.936530 17.065085 -27.396734
LeftToeBase 42.417583 -0.000000 -0.000000
RightUpLeg -114.855837 -15.357419 -3.933653
RightLeg 130.358830 -0.000000 -0.000000
RightFoot -62.365664 -34.369028 30.520018
RightToeBase 20.628720 -0.000000 -0.000000
917
root 23.433453 15.594975 -12.456777 -171.542579 20.143609 -203.404604
Spine 51.162817 -26.684720 11.865771
Head 8.289398 16.900990 -5.443087
LeftShoulder 26.759971 -42.808666 -9.046061
LeftArm 13.344910 7.948207 -88.120358
LeftForeArm -62.973175 -0.000000 -1.539267
LeftHand -8.500241 -0.000000 -9.099527
LeftHandThumb1 -26.253704 0.000000 33.147579
RightShoulder 8.169285 4.407230 7.011213
RightArm 40.190595 22.222206 61.415991
RightForeArm 3.928694 -0.000000 27.811845
RightHand -17.328361 -0.000000 -69.912542
RightHandThumb1 -24.326973 -0.000000 -32.862282
LeftUpLeg 4.443694 38.187299 36.894086
LeftLeg -2.588144 -0.000000 0.000000
LeftFoot -3.990449 17.132393 -27.367726
LeftToeBase 42.405847 -0.000000 -0.000000
RightUpLeg -114.826983 -15.324320 -3.972897
RightLeg 130.227390 -0.000000 -0.000000
RightFoot -62.326153 -34.230475 30.539205
RightToeBase 20.512402 -0.000000 -0.000000
918
root 23.422512 15.647290 -12.464605 -171.329359 20.324524 -203.336727
Spine 51.431242 -26.623703 11.785158
Head 8.311665 16.783183 -6.179568
LeftShoulder 27.221582 -43.058335 -9.140722
LeftArm 13.831677 8.403111 -88.950176
LeftForeArm -63.552697 -0.000000 -1.588569
LeftHand -8.648262 -0.000000 -9.767464
LeftHandThumb1 -26.253704 0.000000 33.147579
RightShoulder 8.222934 4.370179 6.800068
RightArm 40.672551 22.137251 61.477337
RightForeArm 4.067237 -0.000000 27.325395
RightHand -17.440366 -0.000000 -69.761507
RightHandThumb1 -24.326973 -0.000000 -32.862282
LeftUpLeg 4.392390 38.384358 36.793070
LeftLeg -2.606677 -0.000000 0.000000
LeftFoot -4.064422 17.224331 -27.316669
LeftToeBase 42.440697 -0.000000 -0.000000
RightUpLeg -114.857402 -15.205543 -3.928926
RightLeg 130.008469 -0.000000 -0.000000
RightFoot -62.282773 -34.321652 30.550998
RightToeBase 20.325093 -0.000000 -0.000000
919
root 23.408492 15.702653 -12.479805 -171.137568 20.545011 -203.298096
Spine 51.689706 -26.527345 11.673457
Head 8.449078 16.603436 -6.860156
LeftShoulder 27.771355 -43.411286 -9.343278
LeftArm 14.066437 9.029662 -89.680012
LeftForeArm -65.006168 -0.000000 -1.429038
LeftHand -8.504102 -0.000000 -9.162012
LeftHandThumb1 -26.253704 0.000000 33.147579
RightShoulder 8.299781 4.459904 6.565968
RightArm 41.063426 22.092025 61.617833
RightForeArm 4.104227 -0.000000 26.701907
RightHand -17.468132 0.000000 -69.528898
RightHandThumb1 -24.326973 -0.000000 -32.862282
LeftUpLeg 4.405005 38.590412 36.678407
LeftLeg -2.635937 -0.000000 0.000000
LeftFoot -4.167099 17.293558 -27.276396
LeftToeBase 42.377720 -0.000000 -0.000000
RightUpLeg -114.866175 -15.084605 -3.957374
RightLeg 129.823389 -0.000000 -0.000000
RightFoot -62.162404 -34.115996 30.550807
RightToeBase 20.268743 -0.000000 -0.000000
920
root 23.400429 15.768985 -12.485850 -170.869107 20.794578 -203.126721
Spine 51.981442 -26.396272 11.703274
Head 8.489473 16.410822 -7.613719
LeftShoulder 28.320092 -43.816536 -9.583278
LeftArm 14.349009 9.588104 -90.372898
LeftForeArm -66.288536 -0.000000 -1.301807
LeftHand -8.312806 -0.000000 -8.208352
LeftHandThumb1 -26.253704 0.000000 33.147579
RightShoulder 8.368804 4.518003 6.312573
RightArm 41.561775 22.003482 61.656087
RightForeArm 4.350096 -0.000000 26.018640
RightHand -17.445547 -0.000000 -69.410062
RightHandThumb1 -24.326973 -0.000000 -32.862282
LeftUpLeg 4.384312 38.819246 36.670143
LeftLeg -2.623999 -0.000000 0.000000
LeftFoot -4.275749 17.378218 -27.290875
LeftToeBase 42.180711 -0.000000 -0.000000
RightUpLeg -114.863667 -14.871499 -3.811824
RightLeg 129.544252 -0.000000 -0.000000
RightFoot -62.096877 -34.082907 30.541131
RightToeBase 20.324546 -0.000000 -0.000000
921
root 23.386607 15.838986 -12.493805 -170.604309 21.088752 -203.017561
Spine 52.238836 -26.252190 11.638081
Head 8.633628 16.309152 -8.350351
LeftShoulder 28.635215 -43.865439 -9.621286
LeftArm 14.940005 10.887268 -90.626383
LeftForeArm -67.688998 -0.000000 -1.116465
LeftHand -8.604751 -0.000000 -8.091425
LeftHandThumb1 -26.253704 0.000000 33.147579
RightShoulder 8.506541 4.557888 6.010943
RightArm 42.110552 22.030621 61.886830
RightForeArm 4.632193 -0.000000 25.240149
RightHand -17.314145 -0.000000 -69.078687
RightHandThumb1 -24.326973 -0.000000 -32.862282
LeftUpLeg 4.375996 39.039076 36.587732
LeftLeg -2.618899 -0.000000 0.000000
LeftFoot -4.412501 17.521076 -27.254246
LeftToeBase 42.066075 -0.000000 -0.000000
RightUpLeg -114.879710 -14.638718 -3.779260
RightLeg 129.232778 -0.000000 -0.000000
RightFoot -62.053413 -34.026003 30.599054
RightToeBase 20.268436 -0.000000 -0.000000
